<?xml version="1.0" standalone="no"?>
<!DOCTYPE svg PUBLIC "-//W3C//DTD SVG 20010904//EN"
 "http://www.w3.org/TR/2001/REC-SVG-20010904/DTD/svg10.dtd">
<svg version="1.0" xmlns="http://www.w3.org/2000/svg"
 width="200.000000pt" height="171.000000pt" viewBox="0 0 200.000000 171.000000"
 preserveAspectRatio="xMidYMid meet">

<g transform="translate(0.000000,171.000000) scale(0.100000,-0.100000)"
fill="#000000" stroke="none">
<path d="M0 855 l0 -855 1000 0 1000 0 0 855 0 855 -1000 0 -1000 0 0 -855z
m98 791 c2 -10 -1 -23 -7 -29 -9 -9 -11 -5 -9 13 2 16 -3 25 -14 28 -13 2 -18
-3 -18 -19 0 -17 -3 -20 -12 -11 -8 8 -8 15 2 27 17 21 54 15 58 -9z m1867 -6
c0 -18 -6 -26 -23 -28 -24 -4 -38 18 -28 44 3 9 15 14 28 12 17 -2 23 -10 23
-28z m-1768 -6 c-3 -3 -12 -4 -19 -1 -8 3 -5 6 6 6 11 1 17 -2 13 -5z m239
-265 c50 -24 107 -79 130 -128 35 -71 27 -241 -11 -241 -21 0 -47 -31 -42 -51
9 -35 -87 -89 -172 -96 -122 -11 -242 73 -277 193 -65 224 162 421 372 323z
m1144 -1019 c0 -5 -5 -10 -11 -10 -5 0 -7 5 -4 10 3 6 8 10 11 10 2 0 4 -4 4
-10z m220 -280 c0 -5 -4 -10 -10 -10 -5 0 -10 5 -10 10 0 6 5 10 10 10 6 0 10
-4 10 -10z"/>
<path d="M1930 1640 c0 -5 5 -10 10 -10 6 0 10 5 10 10 0 6 -4 10 -10 10 -5 0
-10 -4 -10 -10z"/>
<path d="M283 1236 c-42 -21 -102 -89 -103 -115 0 -22 77 -107 110 -121 26
-11 37 -10 70 5 40 18 110 92 110 116 0 24 -66 98 -105 117 l-41 20 -41 -22z"/>
</g>
</svg>
